<svg width="267" height="116" viewBox="0 0 267 116" fill="none" xmlns="http://www.w3.org/2000/svg">
<path d="M33.752 12.232H28.472V1.19201H56.696V12.136H33.752V12.232ZM56.696 23.56V44.584C56.696 48.488 55.96 52.168 54.488 55.624C53.016 59.016 51 61.992 48.44 64.552C45.88 67.112 42.872 69.128 39.416 70.6C36.024 72.072 32.376 72.808 28.472 72.808C24.568 72.808 20.888 72.072 17.432 70.6C14.04 69.128 11.064 67.112 8.50399 64.552C5.94399 61.992 3.92799 59.016 2.45599 55.624C0.983986 52.168 0.247986 48.488 0.247986 44.584H11.288C11.288 46.952 11.736 49.192 12.632 51.304C13.528 53.352 14.744 55.176 16.28 56.776C17.88 58.312 19.704 59.528 21.752 60.424C23.864 61.32 26.104 61.768 28.472 61.768C30.84 61.768 33.048 61.32 35.096 60.424C37.208 59.528 39.032 58.312 40.568 56.776C42.168 55.176 43.416 53.352 44.312 51.304C45.208 49.192 45.656 46.952 45.656 44.584V23.56H56.696Z" fill="white"/>
<path d="M95.7327 1.28801L126.549 72.904H114.261L107.541 57.448L92.5647 22.312L82.1967 46.216L70.6767 72.904H58.5807L89.4927 1.28801H95.7327Z" fill="white"/>
<path d="M166.456 31.144C169.336 31.144 172.024 31.688 174.52 32.776C177.08 33.864 179.288 35.368 181.144 37.288C183.064 39.144 184.568 41.352 185.656 43.912C186.744 46.408 187.288 49.096 187.288 51.976C187.288 54.856 186.744 57.576 185.656 60.136C184.568 62.632 183.064 64.84 181.144 66.76C179.288 68.68 177.08 70.184 174.52 71.272C172.024 72.36 169.336 72.904 166.456 72.904H149.368C146.488 72.904 143.768 72.36 141.208 71.272C138.712 70.184 136.504 68.68 134.584 66.76C132.728 64.84 131.256 62.632 130.168 60.136C129.08 57.576 128.536 54.856 128.536 51.976H139.672C139.672 53.32 139.928 54.6 140.44 55.816C140.952 56.968 141.656 57.992 142.552 58.888C143.448 59.784 144.472 60.488 145.624 61C146.776 61.512 148.024 61.768 149.368 61.768H166.456C167.8 61.768 169.048 61.512 170.2 61C171.352 60.488 172.376 59.784 173.272 58.888C174.168 57.992 174.872 56.968 175.384 55.816C175.896 54.6 176.152 53.32 176.152 51.976C176.152 50.632 175.896 49.384 175.384 48.232C174.872 47.016 174.168 45.992 173.272 45.16C172.376 44.264 171.352 43.56 170.2 43.048C169.048 42.536 167.8 42.28 166.456 42.28L149.368 42.184C146.552 42.184 143.864 41.64 141.304 40.552C138.808 39.464 136.632 37.992 134.776 36.136C132.92 34.28 131.416 32.104 130.264 29.608C129.176 27.112 128.6 24.456 128.536 21.64H139.672C139.736 22.92 140.024 24.136 140.536 25.288C141.048 26.44 141.752 27.464 142.648 28.36C143.544 29.192 144.568 29.864 145.72 30.376C146.872 30.824 148.088 31.048 149.368 31.048L166.456 31.144ZM148.024 0.424011H164.728C167.608 0.424011 170.296 0.968012 172.792 2.05601C175.352 3.14401 177.592 4.64801 179.512 6.56801C181.432 8.42401 182.936 10.632 184.024 13.192C185.112 15.688 185.656 18.376 185.656 21.256H174.52C174.52 19.912 174.264 18.664 173.752 17.512C173.24 16.296 172.536 15.272 171.64 14.44C170.744 13.544 169.688 12.84 168.472 12.328C167.32 11.816 166.072 11.56 164.728 11.56H148.024V0.424011Z" fill="url(#paint0_linear_8_7)"/>
<path d="M206.304 1.19201V72.904H195.072V1.19201H206.304Z" fill="white"/>
<path d="M227.746 61.672H216.514V1.19201H227.746V61.672ZM237.538 61.672H265.954V72.904H237.538V61.672Z" fill="white"/>
<path d="M33.752 10.636H32.252V10.732H29.972V2.69201H55.196V10.636H33.752ZM3.83398 55.0314C2.6344 52.2135 1.95048 49.2341 1.78667 46.084H9.8446C9.9985 48.1026 10.4664 50.0402 11.2511 51.8898L11.2544 51.8976L11.2578 51.9052C12.224 54.1139 13.5385 56.0863 15.1979 57.8148L15.2191 57.8369L15.2412 57.8581C16.9697 59.5175 18.9421 60.832 21.1508 61.7983L21.1584 61.8016L21.1662 61.8049C23.4695 62.782 25.9093 63.268 28.472 63.268C31.0316 63.268 33.4432 62.7831 35.6897 61.8015C37.9657 60.8349 39.9508 59.5145 41.6287 57.8367C43.3593 56.1061 44.7143 54.1267 45.6862 51.9052L45.6896 51.8976L45.6929 51.8898C46.67 49.5865 47.156 47.1467 47.156 44.584V25.06H55.196V44.584C55.196 48.2922 54.4984 51.7698 53.1101 55.0312C51.7117 58.2522 49.8021 61.0686 47.3793 63.4914C44.9602 65.9105 42.1143 67.8203 38.8282 69.2199L38.8188 69.224C35.6257 70.6097 32.1822 71.308 28.472 71.308C24.7636 71.308 21.2857 70.6103 18.0242 69.2218C14.8034 67.8234 11.9872 65.9139 9.56465 63.4914C7.14198 61.0687 5.23238 58.2523 3.83398 55.0314ZM69.6904 71.404H60.862L90.479 2.78801H94.7452L124.27 71.404H115.244L108.921 56.8599L108.916 56.8499L93.9446 21.7239L92.5768 18.5147L91.1886 21.7151L80.8206 45.6191L80.8196 45.6216L69.6904 71.404ZM166.448 32.644H166.456C169.142 32.644 171.625 33.1502 173.921 34.1511L173.934 34.1565C176.316 35.1693 178.355 36.561 180.066 38.3305L180.083 38.3488L180.102 38.3665C181.871 40.077 183.263 42.1158 184.276 44.4987L184.281 44.5114C185.282 46.8075 185.788 49.2902 185.788 51.976C185.788 54.6591 185.283 57.1766 184.279 59.5425C183.266 61.8645 181.869 63.914 180.084 65.6994L180.075 65.7083L180.066 65.7175C178.355 67.487 176.316 68.8788 173.934 69.8915L173.921 69.897C171.625 70.8979 169.142 71.404 166.456 71.404H149.368C146.685 71.404 144.168 70.8988 141.802 69.8944C139.484 68.8831 137.437 67.4894 135.654 65.7083C133.93 63.9234 132.562 61.8711 131.546 59.5425C130.731 57.6227 130.244 55.603 130.09 53.476H138.268C138.398 54.481 138.661 55.4563 139.058 56.3981L139.064 56.4117L139.07 56.4252C139.657 57.7463 140.466 58.9232 141.492 59.9487C142.517 60.9742 143.694 61.7836 145.015 62.3707C146.371 62.9735 147.828 63.268 149.368 63.268H166.456C167.996 63.268 169.453 62.9735 170.809 62.3707C172.131 61.7836 173.307 60.9742 174.333 59.9487C175.358 58.9232 176.168 57.7463 176.755 56.4252L176.761 56.4117L176.767 56.3981C177.358 54.9944 177.652 53.5161 177.652 51.976C177.652 50.4415 177.36 48.9891 176.761 47.6368C176.177 46.2551 175.364 45.0613 174.314 44.0801C173.293 43.0637 172.122 42.2608 170.809 41.6773C169.455 41.0751 167.999 40.7806 166.461 40.78C166.459 40.78 166.458 40.78 166.456 40.78L149.377 40.684H149.368C146.754 40.684 144.267 40.1806 141.897 39.1742C139.57 38.1587 137.554 36.7921 135.837 35.0754C134.115 33.3539 132.713 31.3309 131.633 28.9941C130.828 27.1425 130.325 25.1933 130.127 23.14H138.33C138.493 24.0902 138.771 25.0103 139.166 25.8972C139.753 27.2183 140.562 28.3952 141.588 29.4207L141.607 29.4403L141.628 29.4592C142.649 30.4073 143.813 31.1696 145.111 31.7467L145.143 31.7611L145.177 31.774C146.507 32.2913 147.906 32.5475 149.364 32.548C149.365 32.548 149.367 32.548 149.368 32.548L166.448 32.644ZM164.728 10.06H149.524V1.92401H164.728C167.414 1.92401 169.897 2.43018 172.193 3.43112L172.206 3.43651C174.593 4.45115 176.671 5.84804 178.452 7.62867L178.461 7.63766L178.47 7.64649C180.239 9.35705 181.631 11.3958 182.644 13.7787L182.649 13.7914C183.461 15.6539 183.947 17.6391 184.102 19.756H175.923C175.792 18.7682 175.529 17.8197 175.129 16.9159C174.545 15.5345 173.732 14.341 172.682 13.36C171.65 12.3337 170.441 11.5312 169.068 10.9511C167.715 10.3525 166.263 10.06 164.728 10.06ZM204.804 2.69201V71.404H196.572V2.69201H204.804ZM226.246 60.172H218.014V2.69201H226.246V60.172ZM239.038 63.172H264.454V71.404H239.038V63.172Z" stroke="white" stroke-width="3"/>
<path d="M1.512 109V89.56H5.736C7.176 89.56 8.312 89.784 9.144 90.232C9.992 90.664 10.592 91.32 10.944 92.2C11.312 93.08 11.496 94.176 11.496 95.488V102.64C11.496 104.016 11.312 105.176 10.944 106.12C10.592 107.064 10.008 107.784 9.192 108.28C8.392 108.76 7.312 109 5.952 109H1.512ZM4.224 107.056H5.76C6.752 107.056 7.456 106.864 7.872 106.48C8.288 106.096 8.536 105.536 8.616 104.8C8.712 104.064 8.76 103.176 8.76 102.136V95.824C8.76 94.816 8.696 94 8.568 93.376C8.44 92.752 8.16 92.296 7.728 92.008C7.296 91.72 6.616 91.576 5.688 91.576H4.224V107.056ZM15.6083 109V89.56H23.1443V91.576H18.3203V98.008H22.2323V99.928H18.3203V107.056H23.1923V109H15.6083ZM31.4057 109.216C30.2857 109.216 29.3497 108.976 28.5977 108.496C27.8617 108.016 27.3017 107.352 26.9177 106.504C26.5337 105.656 26.3097 104.672 26.2457 103.552L28.6457 102.904C28.6937 103.592 28.7977 104.256 28.9577 104.896C29.1337 105.536 29.4137 106.064 29.7977 106.48C30.1817 106.88 30.7177 107.08 31.4057 107.08C32.1097 107.08 32.6377 106.888 32.9897 106.504C33.3577 106.104 33.5417 105.536 33.5417 104.8C33.5417 103.92 33.3417 103.216 32.9417 102.688C32.5417 102.144 32.0377 101.6 31.4297 101.056L28.1657 98.176C27.5257 97.616 27.0537 97.008 26.7497 96.352C26.4457 95.68 26.2937 94.856 26.2937 93.88C26.2937 92.456 26.7017 91.352 27.5177 90.568C28.3337 89.784 29.4457 89.392 30.8537 89.392C31.6217 89.392 32.2937 89.496 32.8697 89.704C33.4617 89.896 33.9497 90.2 34.3337 90.616C34.7337 91.032 35.0457 91.56 35.2697 92.2C35.5097 92.824 35.6697 93.56 35.7497 94.408L33.4457 95.032C33.3977 94.392 33.3017 93.808 33.1577 93.28C33.0137 92.736 32.7577 92.304 32.3897 91.984C32.0377 91.648 31.5257 91.48 30.8537 91.48C30.1817 91.48 29.6537 91.664 29.2697 92.032C28.9017 92.384 28.7177 92.912 28.7177 93.616C28.7177 94.208 28.8137 94.696 29.0057 95.08C29.2137 95.464 29.5417 95.856 29.9897 96.256L33.2777 99.136C34.0137 99.776 34.6617 100.544 35.2217 101.44C35.7817 102.32 36.0617 103.368 36.0617 104.584C36.0617 105.544 35.8617 106.376 35.4617 107.08C35.0617 107.768 34.5097 108.296 33.8057 108.664C33.1177 109.032 32.3177 109.216 31.4057 109.216ZM39.7494 109V89.56H42.4134V109H39.7494ZM51.6306 109.24C50.4146 109.24 49.4386 108.984 48.7026 108.472C47.9826 107.944 47.4546 107.184 47.1186 106.192C46.7986 105.2 46.6386 104.008 46.6386 102.616V96.112C46.6386 94.688 46.7826 93.48 47.0706 92.488C47.3746 91.48 47.9026 90.712 48.6546 90.184C49.4226 89.656 50.4866 89.392 51.8466 89.392C53.0626 89.392 54.0386 89.6 54.7746 90.016C55.5266 90.416 56.0706 91.04 56.4066 91.888C56.7426 92.72 56.9106 93.776 56.9106 95.056V95.776H54.3666V95.176C54.3666 94.328 54.3106 93.64 54.1986 93.112C54.0866 92.568 53.8546 92.168 53.5026 91.912C53.1666 91.64 52.6306 91.504 51.8946 91.504C51.0946 91.504 50.5106 91.688 50.1426 92.056C49.7906 92.424 49.5666 92.928 49.4706 93.568C49.3906 94.192 49.3506 94.904 49.3506 95.704V102.904C49.3506 103.832 49.4146 104.608 49.5426 105.232C49.6866 105.856 49.9506 106.32 50.3346 106.624C50.7186 106.928 51.2626 107.08 51.9666 107.08C52.6706 107.08 53.2146 106.912 53.5986 106.576C53.9826 106.24 54.2466 105.744 54.3906 105.088C54.5346 104.432 54.6066 103.616 54.6066 102.64V101.296H52.1346V99.376H57.0546V109H55.3506L55.0866 106.768C54.8306 107.488 54.4306 108.08 53.8866 108.544C53.3426 109.008 52.5906 109.24 51.6306 109.24ZM61.2823 109V89.56H63.1303L68.6503 102.472V89.56H70.9063V109H69.1783L63.5863 95.728V109H61.2823ZM75.066 109V106.144H77.634V109H75.066ZM88.2898 109V89.56H92.5138C93.9538 89.56 95.0898 89.784 95.9218 90.232C96.7698 90.664 97.3698 91.32 97.7218 92.2C98.0898 93.08 98.2738 94.176 98.2738 95.488V102.64C98.2738 104.016 98.0898 105.176 97.7218 106.12C97.3698 107.064 96.7858 107.784 95.9698 108.28C95.1698 108.76 94.0898 109 92.7298 109H88.2898ZM91.0018 107.056H92.5378C93.5298 107.056 94.2338 106.864 94.6498 106.48C95.0658 106.096 95.3138 105.536 95.3938 104.8C95.4898 104.064 95.5378 103.176 95.5378 102.136V95.824C95.5378 94.816 95.4738 94 95.3458 93.376C95.2178 92.752 94.9378 92.296 94.5058 92.008C94.0738 91.72 93.3938 91.576 92.4658 91.576H91.0018V107.056ZM102.386 109V89.56H109.922V91.576H105.098V98.008H109.01V99.928H105.098V107.056H109.97V109H102.386ZM116.984 109L112.64 89.56H115.184L118.256 103.888L121.184 89.56H123.656L119.36 109H116.984ZM127.157 109V89.56H134.693V91.576H129.869V98.008H133.781V99.928H129.869V107.056H134.741V109H127.157ZM138.37 109V89.56H141.082V107.056H146.05V109H138.37ZM154.177 109.216C152.865 109.216 151.817 108.96 151.033 108.448C150.249 107.936 149.689 107.208 149.353 106.264C149.017 105.304 148.849 104.184 148.849 102.904V95.536C148.849 94.256 149.017 93.16 149.353 92.248C149.705 91.32 150.265 90.616 151.033 90.136C151.817 89.64 152.865 89.392 154.177 89.392C155.489 89.392 156.529 89.64 157.297 90.136C158.065 90.632 158.617 91.336 158.953 92.248C159.305 93.16 159.481 94.256 159.481 95.536V102.928C159.481 104.192 159.305 105.296 158.953 106.24C158.617 107.184 158.065 107.92 157.297 108.448C156.529 108.96 155.489 109.216 154.177 109.216ZM154.177 107.08C154.897 107.08 155.441 106.936 155.809 106.648C156.177 106.344 156.425 105.928 156.553 105.4C156.681 104.856 156.745 104.224 156.745 103.504V94.984C156.745 94.264 156.681 93.648 156.553 93.136C156.425 92.608 156.177 92.208 155.809 91.936C155.441 91.648 154.897 91.504 154.177 91.504C153.457 91.504 152.905 91.648 152.521 91.936C152.153 92.208 151.905 92.608 151.777 93.136C151.649 93.648 151.585 94.264 151.585 94.984V103.504C151.585 104.224 151.649 104.856 151.777 105.4C151.905 105.928 152.153 106.344 152.521 106.648C152.905 106.936 153.457 107.08 154.177 107.08ZM163.586 109V89.56H168.41C169.578 89.56 170.506 89.776 171.194 90.208C171.898 90.624 172.41 91.232 172.73 92.032C173.05 92.832 173.21 93.8 173.21 94.936C173.21 95.96 173.026 96.848 172.658 97.6C172.306 98.352 171.778 98.936 171.074 99.352C170.37 99.752 169.49 99.952 168.434 99.952H166.298V109H163.586ZM166.298 98.008H167.546C168.33 98.008 168.946 97.92 169.394 97.744C169.842 97.568 170.162 97.264 170.354 96.832C170.546 96.384 170.642 95.76 170.642 94.96C170.642 94.032 170.57 93.32 170.426 92.824C170.298 92.328 170.018 91.984 169.586 91.792C169.154 91.6 168.482 91.504 167.57 91.504H166.298V98.008ZM174.206 109V106.144H176.774V109H174.206ZM187.429 109V89.56H191.653C193.093 89.56 194.229 89.784 195.061 90.232C195.909 90.664 196.509 91.32 196.861 92.2C197.229 93.08 197.413 94.176 197.413 95.488V102.64C197.413 104.016 197.229 105.176 196.861 106.12C196.509 107.064 195.925 107.784 195.109 108.28C194.309 108.76 193.229 109 191.869 109H187.429ZM190.141 107.056H191.677C192.669 107.056 193.373 106.864 193.789 106.48C194.205 106.096 194.453 105.536 194.533 104.8C194.629 104.064 194.677 103.176 194.677 102.136V95.824C194.677 94.816 194.613 94 194.485 93.376C194.357 92.752 194.077 92.296 193.645 92.008C193.213 91.72 192.533 91.576 191.605 91.576H190.141V107.056ZM201.526 109V89.56H209.062V91.576H204.238V98.008H208.15V99.928H204.238V107.056H209.11V109H201.526ZM212.739 109V89.56H215.451V107.056H220.419V109H212.739ZM223.862 109V89.56H226.526V109H223.862ZM234.495 109L230.151 89.56H232.695L235.767 103.888L238.695 89.56H241.167L236.871 109H234.495ZM244.669 109V89.56H252.205V91.576H247.381V98.008H251.293V99.928H247.381V107.056H252.253V109H244.669ZM255.882 109V89.56H259.794C261.09 89.56 262.162 89.736 263.01 90.088C263.858 90.424 264.482 90.976 264.882 91.744C265.298 92.496 265.506 93.488 265.506 94.72C265.506 95.472 265.426 96.16 265.266 96.784C265.106 97.392 264.85 97.912 264.498 98.344C264.146 98.76 263.682 99.064 263.106 99.256L265.866 109H263.25L260.706 99.88H258.594V109H255.882ZM258.594 97.936H259.626C260.394 97.936 261.018 97.84 261.498 97.648C261.978 97.456 262.33 97.128 262.554 96.664C262.778 96.2 262.89 95.552 262.89 94.72C262.89 93.584 262.682 92.768 262.266 92.272C261.85 91.76 261.026 91.504 259.794 91.504H258.594V97.936Z" fill="white"/>
<defs>
<linearGradient id="paint0_linear_8_7" x1="187" y1="-25" x2="111.5" y2="136.5" gradientUnits="userSpaceOnUse">
<stop offset="0.154167" stop-color="#8B1DE1"/>
<stop offset="0.669792" stop-color="#8B1DE1" stop-opacity="0"/>
</linearGradient>
</defs>
</svg>
